<?xml version="1.0" encoding="UTF-8"?>
<!-- Generated by Pixelmator Pro 3.5.7 -->
<svg width="482" height="72" viewBox="0 0 482 72" xmlns="http://www.w3.org/2000/svg">
    <path id="1-888" fill="#ffd35c" fill-rule="evenodd" stroke="none" d="M 180.052994 45.216 C 180.052994 46.204002 180.235001 47.139996 180.598999 48.024002 C 180.962997 48.908005 181.457001 49.674995 182.080994 50.325001 C 182.705002 50.975006 183.445999 51.494999 184.304001 51.885002 C 185.162003 52.275002 186.084991 52.470001 187.072998 52.470001 C 188.009003 52.470001 188.905991 52.275002 189.764008 51.885002 C 190.622009 51.494999 191.375992 50.975006 192.026001 50.325001 C 192.67601 49.674995 193.182999 48.921005 193.546997 48.063 C 193.910995 47.204994 194.093002 46.282005 194.093002 45.293999 C 194.093002 43.317989 193.404007 41.641006 192.026001 40.263 C 190.647995 38.884995 188.997009 38.195999 187.072998 38.195999 C 185.096985 38.195999 183.433014 38.884995 182.080994 40.263 C 180.728989 41.641006 180.052994 43.291992 180.052994 45.216 Z M 180.598999 19.164001 C 180.598999 20.984009 181.222992 22.530994 182.470993 23.805 C 183.719009 25.079006 185.252991 25.716 187.072998 25.716 C 188.009003 25.716 188.866989 25.534 189.647003 25.169998 C 190.427002 24.806 191.102997 24.325005 191.675003 23.727001 C 192.247009 23.128998 192.701996 22.440002 193.039993 21.66 C 193.378006 20.879997 193.546997 20.074005 193.546997 19.242001 C 193.546997 17.473991 192.923004 15.953007 191.675003 14.679001 C 190.426987 13.404995 188.893005 12.768002 187.072998 12.768002 C 185.252991 12.768002 183.719009 13.391994 182.470993 14.639999 C 181.222992 15.888008 180.598999 17.395992 180.598999 19.164001 Z M 176.231003 31.956001 C 170.094971 29.407986 167.026993 25.09203 167.026993 19.007999 C 167.026993 16.511986 167.520996 14.263008 168.509003 12.261002 C 169.497009 10.258991 170.861984 8.530006 172.604004 7.073997 C 174.346008 5.617996 176.451981 4.500008 178.921997 3.720001 C 181.392014 2.939995 184.108978 2.550003 187.072998 2.550003 C 190.037018 2.550003 192.753983 2.939995 195.223999 3.720001 C 197.694016 4.500008 199.799988 5.617996 201.542007 7.073997 C 203.284012 8.530006 204.649002 10.258991 205.636993 12.261002 C 206.625 14.263008 207.119003 16.511986 207.119003 19.007999 C 207.119003 20.568008 206.962997 21.958992 206.651001 23.181 C 206.339005 24.403008 205.806 25.520996 205.052002 26.535 C 204.297989 27.549004 203.310013 28.497997 202.087997 29.382 C 200.865997 30.266003 199.345016 31.123997 197.524994 31.956001 C 205.533035 35.076015 209.537003 40.119965 209.537003 47.087997 C 209.537003 49.584015 208.978012 51.897987 207.860001 54.029999 C 206.741989 56.16201 205.182007 58.007992 203.179993 59.568001 C 201.177994 61.128006 198.812012 62.349995 196.082001 63.234001 C 193.35199 64.118004 190.349014 64.559998 187.072998 64.559998 C 183.900986 64.559998 180.950012 64.131004 178.220001 63.272999 C 175.48999 62.414997 173.111008 61.206009 171.082993 59.646 C 169.054993 58.085991 167.469009 56.240009 166.324997 54.108002 C 165.181 51.97599 164.608994 49.636013 164.608994 47.087997 C 164.608994 39.963963 168.482956 34.920013 176.231003 31.956001 Z M 130.132996 45.216 C 130.132996 46.204002 130.315002 47.139996 130.679001 48.024002 C 131.042999 48.908005 131.537003 49.674995 132.160995 50.325001 C 132.785004 50.975006 133.526001 51.494999 134.384003 51.885002 C 135.242004 52.275002 136.164993 52.470001 137.153 52.470001 C 138.089005 52.470001 138.985992 52.275002 139.843994 51.885002 C 140.702011 51.494999 141.455994 50.975006 142.106003 50.325001 C 142.755997 49.674995 143.263 48.921005 143.626999 48.063 C 143.990997 47.204994 144.173004 46.282005 144.173004 45.293999 C 144.173004 43.317989 143.484009 41.641006 142.106003 40.263 C 140.727997 38.884995 139.077011 38.195999 137.153 38.195999 C 135.176987 38.195999 133.513 38.884995 132.160995 40.263 C 130.80899 41.641006 130.132996 43.291992 130.132996 45.216 Z M 130.679001 19.164001 C 130.679001 20.984009 131.302994 22.530994 132.550995 23.805 C 133.799011 25.079006 135.332993 25.716 137.153 25.716 C 138.089005 25.716 138.946991 25.534 139.727005 25.169998 C 140.507004 24.806 141.182999 24.325005 141.755005 23.727001 C 142.326996 23.128998 142.781998 22.440002 143.119995 21.66 C 143.458008 20.879997 143.626999 20.074005 143.626999 19.242001 C 143.626999 17.473991 143.003006 15.953007 141.755005 14.679001 C 140.506989 13.404995 138.973007 12.768002 137.153 12.768002 C 135.332993 12.768002 133.799011 13.391994 132.550995 14.639999 C 131.302994 15.888008 130.679001 17.395992 130.679001 19.164001 Z M 126.310997 31.956001 C 120.174973 29.407986 117.107002 25.09203 117.107002 19.007999 C 117.107002 16.511986 117.600998 14.263008 118.588997 12.261002 C 119.577003 10.258991 120.941994 8.530006 122.683998 7.073997 C 124.42601 5.617996 126.53199 4.500008 129.001999 3.720001 C 131.472015 2.939995 134.18898 2.550003 137.153 2.550003 C 140.11702 2.550003 142.833984 2.939995 145.304001 3.720001 C 147.774017 4.500008 149.87999 5.617996 151.621994 7.073997 C 153.364014 8.530006 154.728989 10.258991 155.716995 12.261002 C 156.705002 14.263008 157.199005 16.511986 157.199005 19.007999 C 157.199005 20.568008 157.042999 21.958992 156.731003 23.181 C 156.418991 24.403008 155.886002 25.520996 155.132004 26.535 C 154.377991 27.549004 153.389999 28.497997 152.167999 29.382 C 150.945999 30.266003 149.425003 31.123997 147.604996 31.956001 C 155.613037 35.076015 159.617004 40.119965 159.617004 47.087997 C 159.617004 49.584015 159.057999 51.897987 157.940002 54.029999 C 156.821991 56.16201 155.262009 58.007992 153.259995 59.568001 C 151.257996 61.128006 148.892014 62.349995 146.162003 63.234001 C 143.431992 64.118004 140.429016 64.559998 137.153 64.559998 C 133.980988 64.559998 131.030014 64.131004 128.300003 63.272999 C 125.569984 62.414997 123.19101 61.206009 121.163002 59.646 C 119.134987 58.085991 117.549004 56.240009 116.404999 54.108002 C 115.260994 51.97599 114.689003 49.636013 114.689003 47.087997 C 114.689003 39.963963 118.562958 34.920013 126.310997 31.956001 Z M 80.212997 45.216 C 80.212997 46.204002 80.394997 47.139996 80.759003 48.024002 C 81.123001 48.908005 81.616997 49.674995 82.240997 50.325001 C 82.865005 50.975006 83.605995 51.494999 84.463997 51.885002 C 85.322006 52.275002 86.244995 52.470001 87.233002 52.470001 C 88.169006 52.470001 89.065994 52.275002 89.924004 51.885002 C 90.782005 51.494999 91.535995 50.975006 92.185997 50.325001 C 92.836006 49.674995 93.342995 48.921005 93.707001 48.063 C 94.070999 47.204994 94.252998 46.282005 94.252998 45.293999 C 94.252998 43.317989 93.564011 41.641006 92.185997 40.263 C 90.807991 38.884995 89.157013 38.195999 87.233002 38.195999 C 85.256989 38.195999 83.59301 38.884995 82.240997 40.263 C 80.888992 41.641006 80.212997 43.291992 80.212997 45.216 Z M 80.759003 19.164001 C 80.759003 20.984009 81.382996 22.530994 82.630997 23.805 C 83.879005 25.079006 85.412994 25.716 87.233002 25.716 C 88.169006 25.716 89.026993 25.534 89.806999 25.169998 C 90.587006 24.806 91.263 24.325005 91.834999 23.727001 C 92.407005 23.128998 92.862 22.440002 93.199997 21.66 C 93.538002 20.879997 93.707001 20.074005 93.707001 19.242001 C 93.707001 17.473991 93.083008 15.953007 91.834999 14.679001 C 90.58699 13.404995 89.053009 12.768002 87.233002 12.768002 C 85.412994 12.768002 83.879005 13.391994 82.630997 14.639999 C 81.382996 15.888008 80.759003 17.395992 80.759003 19.164001 Z M 76.390999 31.956001 C 70.254967 29.407986 67.186996 25.09203 67.186996 19.007999 C 67.186996 16.511986 67.680992 14.263008 68.668999 12.261002 C 69.657005 10.258991 71.021988 8.530006 72.764 7.073997 C 74.506012 5.617996 76.611984 4.500008 79.082001 3.720001 C 81.55201 2.939995 84.268982 2.550003 87.233002 2.550003 C 90.197014 2.550003 92.913986 2.939995 95.384003 3.720001 C 97.854012 4.500008 99.959991 5.617996 101.702003 7.073997 C 103.444008 8.530006 104.808998 10.258991 105.796997 12.261002 C 106.785004 14.263008 107.278999 16.511986 107.278999 19.007999 C 107.278999 20.568008 107.123001 21.958992 106.810997 23.181 C 106.499001 24.403008 105.966003 25.520996 105.211998 26.535 C 104.457993 27.549004 103.470009 28.497997 102.248001 29.382 C 101.025993 30.266003 99.505013 31.123997 97.684998 31.956001 C 105.693039 35.076015 109.696999 40.119965 109.696999 47.087997 C 109.696999 49.584015 109.138008 51.897987 108.019997 54.029999 C 106.901993 56.16201 105.34201 58.007992 103.339996 59.568001 C 101.33799 61.128006 98.972015 62.349995 96.241997 63.234001 C 93.511986 64.118004 90.509018 64.559998 87.233002 64.559998 C 84.060982 64.559998 81.110016 64.131004 78.379997 63.272999 C 75.649986 62.414997 73.271011 61.206009 71.242996 59.646 C 69.214989 58.085991 67.629005 56.240009 66.485001 54.108002 C 65.340996 51.97599 64.768997 49.636013 64.768997 47.087997 C 64.768997 39.963963 68.64296 34.920013 76.390999 31.956001 Z M 41.446999 36.245998 L 63.833 36.245998 L 63.833 48.024002 L 41.446999 48.024002 Z M 12.197 17.136002 L 3.617 17.136002 L 3.617 4.188004 L 27.485001 4.188004 L 27.485001 63 L 12.197 63 Z"/>
    <path id="TKT-FRDM" fill="#ffffff" fill-rule="evenodd" stroke="none" d="M 433.824493 38 L 440.096497 1.054001 L 449.602509 1.054001 L 457.001495 20.751999 L 464.351501 1.054001 L 473.857513 1.054001 L 480.129486 38 L 470.574493 38 L 467.389496 16.734001 L 458.667511 38 L 454.84549 38 L 446.564514 16.734001 L 443.379486 38 Z M 405.600494 29.866001 L 407.805511 29.866001 C 409.471497 29.866001 410.957825 29.604668 412.264496 29.082001 C 413.571167 28.55933 414.673676 27.840672 415.571991 26.925999 C 416.470337 26.01133 417.156342 24.925175 417.630005 23.6675 C 418.103668 22.409828 418.340515 21.029675 418.340515 19.527 C 418.340515 18.056992 418.09549 16.685005 417.605499 15.410999 C 417.115509 14.136993 416.421326 13.042671 415.52301 12.127998 C 414.624664 11.213329 413.522186 10.494671 412.215515 9.972 C 410.908813 9.449329 409.438843 9.188 407.805511 9.188 L 405.600494 9.188 Z M 395.99649 1.054001 L 410.206512 1.054001 C 412.721832 1.054001 415.082001 1.560326 417.286987 2.572998 C 419.492004 3.58567 421.419312 4.933159 423.069 6.615501 C 424.718689 8.29784 426.017151 10.257824 426.964508 12.495499 C 427.911835 14.733177 428.385498 17.076988 428.385498 19.527 C 428.385498 21.944344 427.920013 24.271824 426.989014 26.509499 C 426.057983 28.747177 424.76767 30.715324 423.118011 32.414001 C 421.468323 34.112675 419.541016 35.468327 417.335999 36.480999 C 415.130981 37.493671 412.754517 38 410.206512 38 L 395.99649 38 Z M 369.879486 17.567001 L 371.692505 17.567001 C 373.587189 17.567001 375.040833 17.175003 376.053497 16.390999 C 377.066162 15.606995 377.57251 14.480007 377.57251 13.009998 C 377.57251 11.539993 377.066162 10.413002 376.053497 9.629002 C 375.040833 8.844997 373.587189 8.452999 371.692505 8.452999 L 369.879486 8.452999 Z M 390.998505 38 L 379.042511 38 L 369.879486 23.790001 L 369.879486 38 L 360.275513 38 L 360.275513 1.054001 L 375.22049 1.054001 C 377.278503 1.054001 379.075165 1.356163 380.610504 1.960503 C 382.145844 2.564835 383.411652 3.389664 384.40799 4.434998 C 385.404327 5.480339 386.15567 6.688995 386.661987 8.061001 C 387.168335 9.433006 387.421509 10.902992 387.421509 12.471001 C 387.421509 15.280346 386.743683 17.558826 385.388 19.306499 C 384.032318 21.054176 382.031525 22.238331 379.385498 22.859001 Z M 353.5625 9.188 L 341.998505 9.188 L 341.998505 15.362 L 352.533508 15.362 L 352.533508 23.495998 L 341.998505 23.495998 L 341.998505 38 L 332.394501 38 L 332.394501 1.054001 L 353.5625 1.054001 Z M 313.480499 21.193001 L 327.543488 21.193001 L 327.543488 28.591999 L 313.480499 28.591999 Z M 303.680511 9.188 L 303.680511 38 L 294.076508 38 L 294.076508 9.188 L 286.1875 9.188 L 286.1875 1.054001 L 311.569489 1.054001 L 311.569489 9.188 Z M 258.306488 16.292999 L 270.017487 1.054001 L 281.875488 1.054001 L 267.224487 18.547001 L 283.247498 38 L 270.801514 38 L 258.306488 21.977001 L 258.306488 38 L 248.702499 38 L 248.702499 1.054001 L 258.306488 1.054001 Z M 235.570496 9.188 L 235.570496 38 L 225.966507 38 L 225.966507 9.188 L 218.077499 9.188 L 218.077499 1.054001 L 243.459503 1.054001 L 243.459503 9.188 Z"/>
    <path id="858-3736" fill="#ffd35c" fill-rule="evenodd" stroke="none" d="M 473.408997 44.118 L 466.346985 52.236 L 466.479004 52.236 C 467.095001 51.862 467.601013 51.636501 467.997009 51.559502 C 468.393005 51.482498 468.744995 51.444 469.053009 51.444 C 470.263 51.444 471.373993 51.674995 472.385986 52.137001 C 473.39801 52.599003 474.277985 53.231499 475.026001 54.0345 C 475.774017 54.837502 476.356995 55.777992 476.774994 56.855999 C 477.192993 57.934006 477.402008 59.088993 477.402008 60.320999 C 477.402008 61.641006 477.160004 62.867493 476.675995 64.000504 C 476.191986 65.133507 475.4935 66.123497 474.580505 66.970497 C 473.66748 67.817505 472.562012 68.482994 471.264008 68.967003 C 469.966003 69.451004 468.503021 69.693001 466.875 69.693001 C 465.225006 69.693001 463.751007 69.451004 462.453003 68.967003 C 461.154999 68.482994 460.0495 67.823006 459.136505 66.987 C 458.22348 66.150993 457.524994 65.177505 457.040985 64.066498 C 456.557007 62.955494 456.315002 61.773006 456.315002 60.519001 C 456.315002 59.110992 456.62851 57.587509 457.255493 55.948502 C 457.882507 54.309494 458.845001 52.698006 460.143005 51.113998 L 465.917999 44.118 Z M 462.71701 60.452999 C 462.71701 61.025002 462.826996 61.558498 463.046997 62.053501 C 463.266998 62.548504 463.563995 62.982998 463.937988 63.357002 C 464.312012 63.731003 464.74649 64.028 465.241486 64.248001 C 465.736511 64.468002 466.269989 64.578003 466.84201 64.578003 C 467.414001 64.578003 467.94751 64.468002 468.442505 64.248001 C 468.9375 64.028 469.372009 63.731003 469.746002 63.357002 C 470.119995 62.982998 470.416992 62.548504 470.636993 62.053501 C 470.856995 61.558498 470.96701 61.025002 470.96701 60.452999 C 470.96701 59.880997 470.856995 59.347504 470.636993 58.852501 C 470.416992 58.357498 470.119995 57.923004 469.746002 57.549 C 469.372009 57.174999 468.9375 56.878002 468.442505 56.658001 C 467.94751 56.438 467.414001 56.327999 466.84201 56.327999 C 466.269989 56.327999 465.736511 56.438 465.241486 56.658001 C 464.74649 56.878002 464.312012 57.174999 463.937988 57.549 C 463.563995 57.923004 463.266998 58.357498 463.046997 58.852501 C 462.826996 59.347504 462.71701 59.880997 462.71701 60.452999 Z M 429.848999 53.82 C 430.024994 53.842003 430.173492 53.853001 430.294495 53.853001 C 430.415497 53.853001 430.519989 53.853001 430.608002 53.853001 C 431.421997 53.853001 432.082001 53.611 432.588013 53.126999 C 433.093994 52.642998 433.346985 52.016006 433.346985 51.246002 C 433.346985 50.497993 433.110504 49.893002 432.637512 49.431 C 432.16449 48.968998 431.554016 48.737999 430.806 48.737999 C 430.014008 48.737999 429.376007 49.001999 428.891998 49.529999 C 428.40799 50.058002 428.165985 50.739998 428.165985 51.576 L 422.192993 51.576 C 422.347015 50.277992 422.671509 49.123005 423.166504 48.111 C 423.661499 47.098995 424.294006 46.246506 425.063995 45.553497 C 425.834015 44.860497 426.735992 44.332504 427.769989 43.969498 C 428.804016 43.606499 429.947998 43.424999 431.201996 43.424999 C 432.434021 43.424999 433.550507 43.595497 434.551514 43.936501 C 435.55249 44.277504 436.410492 44.761497 437.125488 45.3885 C 437.840515 46.015503 438.390503 46.774498 438.775513 47.665501 C 439.160492 48.556503 439.352997 49.551994 439.352997 50.652 C 439.352997 51.840004 439.127502 52.813496 438.676514 53.572502 C 438.225494 54.331505 437.582001 54.986 436.746002 55.535999 C 438.022003 55.931999 439.017487 56.641495 439.732513 57.664501 C 440.44751 58.687504 440.804993 59.946991 440.804993 61.443001 C 440.804993 62.675007 440.562988 63.796997 440.07901 64.808998 C 439.595001 65.821007 438.918518 66.689995 438.0495 67.416 C 437.180481 68.142006 436.146515 68.702995 434.94751 69.098999 C 433.748505 69.495003 432.434021 69.693001 431.003998 69.693001 C 429.089996 69.693001 427.363007 69.319 425.822998 68.570999 C 424.28299 67.822998 423.050995 66.63501 422.127014 65.007004 C 421.708984 64.280998 421.428497 63.555004 421.285492 62.829002 C 421.142487 62.102997 421.071014 61.366005 421.071014 60.618 L 427.472992 60.618 C 427.516998 61.784004 427.858002 62.669495 428.496002 63.274498 C 429.134003 63.879501 429.992004 64.181999 431.070007 64.181999 C 432.21402 64.181999 433.049988 63.874004 433.578003 63.257999 C 434.105988 62.641998 434.369995 61.883003 434.369995 60.980999 C 434.369995 59.902992 434.050995 59.089005 433.412994 58.539001 C 432.774994 57.988998 432.015991 57.714001 431.135986 57.714001 C 430.915985 57.714001 430.707001 57.730499 430.509003 57.7635 C 430.311005 57.796501 430.091003 57.834999 429.848999 57.878998 Z M 397.377014 49.596001 L 386.981995 49.596001 L 386.981995 44.118 L 407.408997 44.118 L 393.153015 69 L 386.024994 69 Z M 359.196014 53.82 C 359.372009 53.842003 359.520508 53.853001 359.64151 53.853001 C 359.762512 53.853001 359.867004 53.853001 359.954987 53.853001 C 360.769012 53.853001 361.428986 53.611 361.934998 53.126999 C 362.44101 52.642998 362.694 52.016006 362.694 51.246002 C 362.694 50.497993 362.457489 49.893002 361.984497 49.431 C 361.511505 48.968998 360.901001 48.737999 360.153015 48.737999 C 359.360992 48.737999 358.722992 49.001999 358.239014 49.529999 C 357.755005 50.058002 357.513 50.739998 357.513 51.576 L 351.540009 51.576 C 351.694 50.277992 352.018494 49.123005 352.513489 48.111 C 353.008514 47.098995 353.640991 46.246506 354.411011 45.553497 C 355.181 44.860497 356.083008 44.332504 357.117004 43.969498 C 358.151001 43.606499 359.294983 43.424999 360.549011 43.424999 C 361.781006 43.424999 362.897491 43.595497 363.898499 43.936501 C 364.899506 44.277504 365.757507 44.761497 366.472504 45.3885 C 367.1875 46.015503 367.737488 46.774498 368.122498 47.665501 C 368.507507 48.556503 368.700012 49.551994 368.700012 50.652 C 368.700012 51.840004 368.474487 52.813496 368.023499 53.572502 C 367.57251 54.331505 366.929016 54.986 366.092987 55.535999 C 367.369019 55.931999 368.364502 56.641495 369.079498 57.664501 C 369.794495 58.687504 370.152008 59.946991 370.152008 61.443001 C 370.152008 62.675007 369.910004 63.796997 369.425995 64.808998 C 368.941986 65.821007 368.265503 66.689995 367.396515 67.416 C 366.527496 68.142006 365.4935 68.702995 364.294495 69.098999 C 363.09549 69.495003 361.781006 69.693001 360.351013 69.693001 C 358.436981 69.693001 356.710022 69.319 355.170013 68.570999 C 353.630005 67.822998 352.39801 66.63501 351.473999 65.007004 C 351.056 64.280998 350.775513 63.555004 350.632507 62.829002 C 350.489502 62.102997 350.417999 61.366005 350.417999 60.618 L 356.820007 60.618 C 356.864014 61.784004 357.204987 62.669495 357.842987 63.274498 C 358.481018 63.879501 359.338989 64.181999 360.416992 64.181999 C 361.561005 64.181999 362.397003 63.874004 362.924988 63.257999 C 363.453003 62.641998 363.71701 61.883003 363.71701 60.980999 C 363.71701 59.902992 363.39801 59.089005 362.76001 58.539001 C 362.122009 57.988998 361.363007 57.714001 360.483002 57.714001 C 360.263 57.714001 360.054016 57.730499 359.855988 57.7635 C 359.65799 57.796501 359.437988 57.834999 359.196014 57.878998 Z M 326.65799 57.681 L 336.128998 57.681 L 336.128998 62.664001 L 326.65799 62.664001 Z M 299.268005 61.475998 C 299.268005 61.894001 299.345001 62.289997 299.498993 62.664001 C 299.653015 63.038002 299.862 63.362499 300.126007 63.637501 C 300.390015 63.912502 300.703491 64.1325 301.066498 64.297501 C 301.429504 64.462502 301.820007 64.544998 302.238007 64.544998 C 302.634003 64.544998 303.013489 64.462502 303.376495 64.297501 C 303.739502 64.1325 304.058502 63.912502 304.333496 63.637501 C 304.60849 63.362499 304.822998 63.043503 304.97699 62.6805 C 305.131012 62.317497 305.208008 61.927002 305.208008 61.508999 C 305.208008 60.672997 304.916504 59.963501 304.333496 59.380501 C 303.750488 58.797497 303.052002 58.506001 302.238007 58.506001 C 301.402008 58.506001 300.697998 58.797497 300.126007 59.380501 C 299.553986 59.963501 299.268005 60.661995 299.268005 61.475998 Z M 299.498993 50.454002 C 299.498993 51.224007 299.763 51.878498 300.290985 52.4175 C 300.819 52.956505 301.467987 53.225998 302.238007 53.225998 C 302.634003 53.225998 302.997009 53.149002 303.326996 52.995003 C 303.657013 52.841 303.942993 52.637501 304.184998 52.384499 C 304.427002 52.1315 304.619507 51.840004 304.762512 51.510002 C 304.905487 51.18 304.97699 50.839005 304.97699 50.487 C 304.97699 49.738998 304.713013 49.095505 304.184998 48.556499 C 303.656982 48.017498 303.007996 47.748001 302.238007 47.748001 C 301.467987 47.748001 300.819 48.011997 300.290985 48.540001 C 299.763 49.068001 299.498993 49.705994 299.498993 50.454002 Z M 297.651001 55.865997 C 295.054993 54.787994 293.756989 52.962013 293.756989 50.388 C 293.756989 49.331993 293.966003 48.380505 294.384003 47.533501 C 294.802002 46.686493 295.379486 45.955002 296.116486 45.339001 C 296.853516 44.723 297.744507 44.25 298.78949 43.919998 C 299.834503 43.589996 300.984009 43.424999 302.238007 43.424999 C 303.492004 43.424999 304.64151 43.589996 305.686493 43.919998 C 306.731506 44.25 307.622498 44.723 308.359497 45.339001 C 309.096497 45.955002 309.674011 46.686493 310.09201 47.533501 C 310.51001 48.380505 310.718994 49.331993 310.718994 50.388 C 310.718994 51.048004 310.653015 51.636497 310.520996 52.1535 C 310.389008 52.670502 310.163513 53.143497 309.844513 53.572502 C 309.525513 54.001503 309.107513 54.403 308.590515 54.777 C 308.073486 55.151001 307.429993 55.514 306.660004 55.865997 C 310.048004 57.186005 311.742004 59.319984 311.742004 62.267998 C 311.742004 63.324005 311.505493 64.302994 311.032501 65.205002 C 310.559509 66.107002 309.899506 66.888 309.05249 67.547997 C 308.205505 68.208 307.204498 68.724998 306.0495 69.098999 C 304.894501 69.473 303.623993 69.660004 302.238007 69.660004 C 300.895996 69.660004 299.647491 69.4785 298.492493 69.115501 C 297.337494 68.752495 296.330994 68.241005 295.472992 67.581001 C 294.61499 66.920998 293.944 66.140007 293.459991 65.237999 C 292.975983 64.335999 292.734009 63.346004 292.734009 62.267998 C 292.734009 59.253986 294.372986 57.120007 297.651001 55.865997 Z M 273.858002 49.596001 L 265.244995 49.596001 L 264.81601 52.334999 C 265.212006 52.291 265.575012 52.252502 265.904999 52.219498 C 266.235016 52.186501 266.575989 52.169998 266.928009 52.169998 C 268.182007 52.169998 269.347992 52.389999 270.425995 52.830002 C 271.503998 53.270004 272.428009 53.874996 273.197998 54.645 C 273.968018 55.415005 274.572998 56.338997 275.013 57.417 C 275.453003 58.495007 275.673004 59.671993 275.673004 60.947998 C 275.673004 62.290009 275.425507 63.499992 274.930511 64.578003 C 274.435486 65.656006 273.737 66.574493 272.834991 67.333496 C 271.932983 68.092506 270.833008 68.675499 269.535004 69.082497 C 268.237 69.489502 266.796021 69.693001 265.212006 69.693001 C 263.716003 69.693001 262.291504 69.511505 260.938507 69.148499 C 259.58548 68.7855 258.315002 68.230003 257.127014 67.482002 L 258.084015 61.41 C 259.18399 62.356003 260.306 63.076496 261.450012 63.571499 C 262.593994 64.066505 263.682983 64.314003 264.71701 64.314003 C 266.037018 64.314003 267.082001 63.956505 267.85199 63.241501 C 268.622009 62.526497 269.006989 61.641006 269.006989 60.584999 C 269.006989 59.352993 268.48999 58.357506 267.455994 57.598499 C 266.421997 56.839497 265.069 56.459999 263.397003 56.459999 C 262.648987 56.459999 261.878998 56.5425 261.087006 56.7075 C 260.294983 56.872501 259.514008 57.130997 258.743988 57.483002 L 260.822998 44.118 L 273.858002 44.118 Z M 227.988007 61.475998 C 227.988007 61.894001 228.065002 62.289997 228.218994 62.664001 C 228.373001 63.038002 228.582001 63.362499 228.845993 63.637501 C 229.110001 63.912502 229.423492 64.1325 229.786499 64.297501 C 230.149506 64.462502 230.539993 64.544998 230.957993 64.544998 C 231.354004 64.544998 231.733505 64.462502 232.096497 64.297501 C 232.459503 64.1325 232.778503 63.912502 233.053497 63.637501 C 233.328506 63.362499 233.542999 63.043503 233.697006 62.6805 C 233.850998 62.317497 233.927994 61.927002 233.927994 61.508999 C 233.927994 60.672997 233.636505 59.963501 233.053497 59.380501 C 232.47049 58.797497 231.772003 58.506001 230.957993 58.506001 C 230.121994 58.506001 229.417999 58.797497 228.845993 59.380501 C 228.274002 59.963501 227.988007 60.661995 227.988007 61.475998 Z M 228.218994 50.454002 C 228.218994 51.224007 228.483002 51.878498 229.011002 52.4175 C 229.539001 52.956505 230.188004 53.225998 230.957993 53.225998 C 231.354004 53.225998 231.716995 53.149002 232.046997 52.995003 C 232.376999 52.841 232.662994 52.637501 232.904999 52.384499 C 233.147003 52.1315 233.339493 51.840004 233.482498 51.510002 C 233.625504 51.18 233.697006 50.839005 233.697006 50.487 C 233.697006 49.738998 233.432999 49.095505 232.904999 48.556499 C 232.376999 48.017498 231.727997 47.748001 230.957993 47.748001 C 230.188004 47.748001 229.539001 48.011997 229.011002 48.540001 C 228.483002 49.068001 228.218994 49.705994 228.218994 50.454002 Z M 226.371002 55.865997 C 223.774994 54.787994 222.477005 52.962013 222.477005 50.388 C 222.477005 49.331993 222.686005 48.380505 223.104004 47.533501 C 223.522003 46.686493 224.099503 45.955002 224.836502 45.339001 C 225.573502 44.723 226.464493 44.25 227.509506 43.919998 C 228.554504 43.589996 229.703995 43.424999 230.957993 43.424999 C 232.212006 43.424999 233.361496 43.589996 234.406494 43.919998 C 235.451508 44.25 236.342499 44.723 237.079498 45.339001 C 237.816498 45.955002 238.393997 46.686493 238.811996 47.533501 C 239.229996 48.380505 239.438995 49.331993 239.438995 50.388 C 239.438995 51.048004 239.373001 51.636497 239.240997 52.1535 C 239.108994 52.670502 238.883499 53.143497 238.564499 53.572502 C 238.245499 54.001503 237.827499 54.403 237.310501 54.777 C 236.793503 55.151001 236.150009 55.514 235.380005 55.865997 C 238.768021 57.186005 240.462006 59.319984 240.462006 62.267998 C 240.462006 63.324005 240.22551 64.302994 239.752502 65.205002 C 239.279495 66.107002 238.619507 66.888 237.772507 67.547997 C 236.925491 68.208 235.9245 68.724998 234.769501 69.098999 C 233.614487 69.473 232.344009 69.660004 230.957993 69.660004 C 229.615997 69.660004 228.367508 69.4785 227.212494 69.115501 C 226.057495 68.752495 225.05101 68.241005 224.192993 67.581001 C 223.334991 66.920998 222.664001 66.140007 222.179993 65.237999 C 221.695999 64.335999 221.453995 63.346004 221.453995 62.267998 C 221.453995 59.253986 223.092987 57.120007 226.371002 55.865997 Z"/>
</svg>
